<?xml version="1.0" encoding="UTF-8" standalone="no"?>
<!DOCTYPE svg PUBLIC "-//W3C//DTD SVG 1.1//EN"
 "http://www.w3.org/Graphics/SVG/1.1/DTD/svg11.dtd">
<!-- Generated by graphviz version 8.1.0 (20230707.0739)
 -->
<!-- Title: G Pages: 1 -->
<svg width="565pt" height="786pt"
 viewBox="0.00 0.00 564.88 786.00" xmlns="http://www.w3.org/2000/svg" xmlns:xlink="http://www.w3.org/1999/xlink">
<g id="graph0" class="graph" transform="scale(1 1) rotate(0) translate(4 782)">
<title>G</title>
<!-- hpc -->
<g id="node1" class="node">
<title>hpc</title>
<path fill="#f7f7f7" stroke="black" d="M473.75,-556.5C473.75,-556.5 354.25,-556.5 354.25,-556.5 348.25,-556.5 342.25,-550.5 342.25,-544.5 342.25,-544.5 342.25,-532.5 342.25,-532.5 342.25,-526.5 348.25,-520.5 354.25,-520.5 354.25,-520.5 473.75,-520.5 473.75,-520.5 479.75,-520.5 485.75,-526.5 485.75,-532.5 485.75,-532.5 485.75,-544.5 485.75,-544.5 485.75,-550.5 479.75,-556.5 473.75,-556.5"/>
<text text-anchor="start" x="350.25" y="-540.2" font-family="sans serif" font-weight="bold" font-size="14.00">High&#45;Performance</text>
<text text-anchor="start" x="375" y="-526.2" font-family="sans serif" font-weight="bold" font-size="14.00">Computing</text>
</g>
<!-- performance -->
<g id="node3" class="node">
<title>performance</title>
<path fill="#f7f7f7" stroke="black" d="M306.88,-335C306.88,-335 137.12,-335 137.12,-335 131.12,-335 125.12,-329 125.12,-323 125.12,-323 125.12,-311 125.12,-311 125.12,-305 131.12,-299 137.12,-299 137.12,-299 306.88,-299 306.88,-299 312.88,-299 318.88,-305 318.88,-311 318.88,-311 318.88,-323 318.88,-323 318.88,-329 312.88,-335 306.88,-335"/>
<text text-anchor="start" x="133.12" y="-314.45" font-family="sans serif" font-weight="bold" font-size="14.00">Performance Engineering</text>
</g>
<!-- hpc&#45;&gt;performance -->
<g id="edge24" class="edge">
<title>hpc&#45;&gt;performance</title>
<path fill="none" stroke="black" d="M421.02,-520C432.97,-487.06 452.87,-415.18 419,-371 407.18,-355.58 369.32,-343.65 329.9,-335.04"/>
<polygon fill="black" stroke="black" points="330.82,-331.45 320.32,-332.81 329.38,-338.3 330.82,-331.45"/>
</g>
<!-- storage -->
<g id="node5" class="node">
<title>storage</title>
<path fill="#f7f7f7" stroke="black" d="M397.75,-407C397.75,-407 278.25,-407 278.25,-407 272.25,-407 266.25,-401 266.25,-395 266.25,-395 266.25,-383 266.25,-383 266.25,-377 272.25,-371 278.25,-371 278.25,-371 397.75,-371 397.75,-371 403.75,-371 409.75,-377 409.75,-383 409.75,-383 409.75,-395 409.75,-395 409.75,-401 403.75,-407 397.75,-407"/>
<text text-anchor="start" x="274.25" y="-390.7" font-family="sans serif" font-weight="bold" font-size="14.00">High&#45;Performance</text>
<text text-anchor="start" x="280.62" y="-376.7" font-family="sans serif" font-weight="bold" font-size="14.00">Storage Systems</text>
</g>
<!-- hpc&#45;&gt;storage -->
<g id="edge8" class="edge">
<title>hpc&#45;&gt;storage</title>
<path fill="none" stroke="black" d="M400.43,-520C384.73,-494.61 360.08,-447.31 346.69,-417.3"/>
<polygon fill="black" stroke="black" points="349.62,-416.28 342.45,-408.48 343.2,-419.05 349.62,-416.28"/>
</g>
<!-- cyberinfrastructure -->
<g id="node9" class="node">
<title>cyberinfrastructure</title>
<path fill="#f7f7f7" stroke="black" d="M197.5,-479C197.5,-479 40.5,-479 40.5,-479 34.5,-479 28.5,-473 28.5,-467 28.5,-467 28.5,-455 28.5,-455 28.5,-449 34.5,-443 40.5,-443 40.5,-443 197.5,-443 197.5,-443 203.5,-443 209.5,-449 209.5,-455 209.5,-455 209.5,-467 209.5,-467 209.5,-473 203.5,-479 197.5,-479"/>
<text text-anchor="start" x="63.12" y="-462.7" font-family="sans serif" font-weight="bold" font-size="14.00">Geo&#45;Distributed</text>
<text text-anchor="start" x="36.5" y="-448.7" font-family="sans serif" font-weight="bold" font-size="14.00">Research Infrastructure</text>
</g>
<!-- hpc&#45;&gt;cyberinfrastructure -->
<g id="edge16" class="edge">
<title>hpc&#45;&gt;cyberinfrastructure</title>
<path fill="none" stroke="black" d="M345.95,-520.08C301.75,-508.77 243.98,-493.99 197.79,-482.16"/>
<polygon fill="black" stroke="black" points="198.77,-478.55 188.22,-479.46 197.04,-485.33 198.77,-478.55"/>
</g>
<!-- ethics -->
<g id="node12" class="node">
<title>ethics</title>
<path fill="#f7f7f7" stroke="black" d="M544.88,-185.5C544.88,-185.5 483.12,-185.5 483.12,-185.5 477.12,-185.5 471.12,-179.5 471.12,-173.5 471.12,-173.5 471.12,-161.5 471.12,-161.5 471.12,-155.5 477.12,-149.5 483.12,-149.5 483.12,-149.5 544.88,-149.5 544.88,-149.5 550.88,-149.5 556.88,-155.5 556.88,-161.5 556.88,-161.5 556.88,-173.5 556.88,-173.5 556.88,-179.5 550.88,-185.5 544.88,-185.5"/>
<text text-anchor="start" x="479.12" y="-169.2" font-family="sans serif" font-weight="bold" font-size="14.00">Computer</text>
<text text-anchor="start" x="493.38" y="-155.2" font-family="sans serif" font-weight="bold" font-size="14.00">Ethics</text>
</g>
<!-- hpc&#45;&gt;ethics -->
<g id="edge22" class="edge">
<title>hpc&#45;&gt;ethics</title>
<path fill="none" stroke="black" d="M428.12,-520.22C454.28,-486.9 509.33,-410.38 528,-335 539.84,-287.19 529.82,-229.55 521.72,-196.15"/>
<polygon fill="black" stroke="black" points="524.94,-195.63 519.08,-186.81 518.16,-197.36 524.94,-195.63"/>
</g>
<!-- cloud -->
<g id="node2" class="node">
<title>cloud</title>
<path fill="#f7f7f7" stroke="black" d="M273.88,-562C273.88,-562 194.12,-562 194.12,-562 188.12,-562 182.12,-556 182.12,-550 182.12,-550 182.12,-527 182.12,-527 182.12,-521 188.12,-515 194.12,-515 194.12,-515 273.88,-515 273.88,-515 279.88,-515 285.88,-521 285.88,-527 285.88,-527 285.88,-550 285.88,-550 285.88,-556 279.88,-562 273.88,-562"/>
<text text-anchor="start" x="198.38" y="-544.7" font-family="sans serif" font-size="14.00">Cloud/HPC</text>
<text text-anchor="start" x="190.12" y="-525.2" font-family="sans serif" font-size="14.00">Convergence</text>
</g>
<!-- cloud&#45;&gt;performance -->
<g id="edge26" class="edge">
<title>cloud&#45;&gt;performance</title>
<path fill="none" stroke="black" d="M232.76,-514.84C230.55,-474.42 225.94,-390.01 223.53,-346.02"/>
<polygon fill="black" stroke="black" points="226.98,-346.05 222.94,-336.26 219.99,-346.43 226.98,-346.05"/>
</g>
<!-- cloud&#45;&gt;storage -->
<g id="edge28" class="edge">
<title>cloud&#45;&gt;storage</title>
<path fill="none" stroke="black" d="M249.92,-514.53C263.24,-495.36 282.78,-467.34 300,-443 306.24,-434.18 313.12,-424.56 319.28,-415.98"/>
<polygon fill="black" stroke="black" points="322.63,-418.31 325.62,-408.15 316.95,-414.22 322.63,-418.31"/>
</g>
<!-- cloud&#45;&gt;cyberinfrastructure -->
<g id="edge27" class="edge">
<title>cloud&#45;&gt;cyberinfrastructure</title>
<path fill="none" stroke="black" d="M199.18,-514.64C184.98,-505.31 168.57,-494.54 154.31,-485.18"/>
<polygon fill="black" stroke="black" points="156.57,-481.83 146.29,-479.26 152.73,-487.68 156.57,-481.83"/>
</g>
<!-- cloud&#45;&gt;ethics -->
<g id="edge23" class="edge">
<title>cloud&#45;&gt;ethics</title>
<path fill="none" stroke="black" d="M280.45,-514.71C321.8,-492.34 381.4,-454.68 419,-407 470.76,-341.37 497.67,-243.9 508.36,-196.47"/>
<polygon fill="black" stroke="black" points="511.97,-197.31 510.67,-186.8 505.13,-195.83 511.97,-197.31"/>
</g>
<!-- viz -->
<g id="node4" class="node">
<title>viz</title>
<path fill="#f7f7f7" stroke="black" d="M243.62,-263C243.62,-263 168.38,-263 168.38,-263 162.38,-263 156.38,-257 156.38,-251 156.38,-251 156.38,-239 156.38,-239 156.38,-233 162.38,-227 168.38,-227 168.38,-227 243.62,-227 243.62,-227 249.62,-227 255.62,-233 255.62,-239 255.62,-239 255.62,-251 255.62,-251 255.62,-257 249.62,-263 243.62,-263"/>
<text text-anchor="middle" x="206" y="-241.45" font-family="sans serif" font-size="14.00">Visualization</text>
</g>
<!-- performance&#45;&gt;viz -->
<g id="edge32" class="edge">
<title>performance&#45;&gt;viz</title>
<path fill="none" stroke="black" d="M218.04,-298.7C216.32,-291.15 214.26,-282.12 212.33,-273.68"/>
<polygon fill="black" stroke="black" points="215.55,-273.07 209.91,-264.1 208.73,-274.63 215.55,-273.07"/>
</g>
<!-- ml -->
<g id="node7" class="node">
<title>ml</title>
<path fill="#f7f7f7" stroke="black" d="M398,-263C398,-263 286,-263 286,-263 280,-263 274,-257 274,-251 274,-251 274,-239 274,-239 274,-233 280,-227 286,-227 286,-227 398,-227 398,-227 404,-227 410,-233 410,-239 410,-239 410,-251 410,-251 410,-257 404,-263 398,-263"/>
<text text-anchor="middle" x="342" y="-241.45" font-family="sans serif" font-size="14.00">Machine Learning</text>
</g>
<!-- performance&#45;&gt;ml -->
<g id="edge33" class="edge">
<title>performance&#45;&gt;ml</title>
<path fill="none" stroke="black" d="M251.97,-298.52C267.41,-289.51 286.42,-278.42 302.98,-268.76"/>
<polygon fill="black" stroke="black" points="304.54,-271.32 311.41,-263.26 301.01,-265.28 304.54,-271.32"/>
</g>
<!-- emergent_storage -->
<g id="node6" class="node">
<title>emergent_storage</title>
<path fill="#f7f7f7" stroke="black" d="M298.62,-191C298.62,-191 187.38,-191 187.38,-191 181.38,-191 175.38,-185 175.38,-179 175.38,-179 175.38,-156 175.38,-156 175.38,-150 181.38,-144 187.38,-144 187.38,-144 298.62,-144 298.62,-144 304.62,-144 310.62,-150 310.62,-156 310.62,-156 310.62,-179 310.62,-179 310.62,-185 304.62,-191 298.62,-191"/>
<text text-anchor="start" x="183.38" y="-173.7" font-family="sans serif" font-size="14.00">Emergent Storage</text>
<text text-anchor="start" x="199.5" y="-154.2" font-family="sans serif" font-size="14.00">Technologies</text>
</g>
<!-- viz&#45;&gt;emergent_storage -->
<g id="edge34" class="edge">
<title>viz&#45;&gt;emergent_storage</title>
<path fill="none" stroke="black" d="M214.4,-226.87C218.14,-219.22 222.69,-209.94 227.05,-201.05"/>
<polygon fill="black" stroke="black" points="230.57,-202.81 231.83,-192.29 224.29,-199.73 230.57,-202.81"/>
</g>
<!-- storage&#45;&gt;hpc -->
<g id="edge9" class="edge">
<title>storage&#45;&gt;hpc</title>
<path fill="none" stroke="black" d="M351.56,-407.48C367.26,-432.86 391.9,-480.16 405.3,-510.17"/>
<polygon fill="black" stroke="black" points="402.37,-511.2 409.54,-519 408.79,-508.43 402.37,-511.2"/>
</g>
<!-- storage&#45;&gt;performance -->
<g id="edge30" class="edge">
<title>storage&#45;&gt;performance</title>
<path fill="none" stroke="black" d="M309.03,-370.52C294.11,-361.51 275.73,-350.42 259.72,-340.76"/>
<polygon fill="black" stroke="black" points="261.97,-337.43 251.6,-335.26 258.36,-343.42 261.97,-337.43"/>
</g>
<!-- postexascale_storage -->
<g id="node13" class="node">
<title>postexascale_storage</title>
<path fill="#f7f7f7" stroke="black" d="M474.12,-108C474.12,-108 329.88,-108 329.88,-108 323.88,-108 317.88,-102 317.88,-96 317.88,-96 317.88,-84 317.88,-84 317.88,-78 323.88,-72 329.88,-72 329.88,-72 474.12,-72 474.12,-72 480.12,-72 486.12,-78 486.12,-84 486.12,-84 486.12,-96 486.12,-96 486.12,-102 480.12,-108 474.12,-108"/>
<text text-anchor="start" x="354.75" y="-91.7" font-family="sans serif" font-weight="bold" font-size="14.00">Post&#45;Exascale</text>
<text text-anchor="start" x="325.88" y="-77.7" font-family="sans serif" font-weight="bold" font-size="14.00">Storage Architectures</text>
</g>
<!-- storage&#45;&gt;postexascale_storage -->
<g id="edge6" class="edge">
<title>storage&#45;&gt;postexascale_storage</title>
<path fill="none" stroke="black" d="M354.02,-370.63C373.78,-347.9 406.32,-305.9 419,-263 433.66,-213.41 420.88,-152.63 410.96,-118.21"/>
<polygon fill="black" stroke="black" points="414.12,-117.57 407.87,-109.01 407.42,-119.59 414.12,-117.57"/>
</g>
<!-- emergent_storage&#45;&gt;performance -->
<g id="edge31" class="edge">
<title>emergent_storage&#45;&gt;performance</title>
<path fill="none" stroke="black" d="M184.6,-191.37C169.7,-200.17 155.51,-211.85 147,-227 139.16,-240.95 139.64,-248.79 147,-263 153.25,-275.07 163.65,-284.97 174.74,-292.82"/>
<polygon fill="black" stroke="black" points="172.43,-296.14 182.72,-298.67 176.26,-290.28 172.43,-296.14"/>
</g>
<!-- emergent_storage&#45;&gt;postexascale_storage -->
<g id="edge7" class="edge">
<title>emergent_storage&#45;&gt;postexascale_storage</title>
<path fill="none" stroke="black" d="M291.14,-143.64C311.54,-133.95 335.24,-122.7 355.47,-113.1"/>
<polygon fill="black" stroke="black" points="356.86,-115.83 364.39,-108.38 353.86,-109.51 356.86,-115.83"/>
</g>
<!-- csx -->
<g id="node14" class="node">
<title>csx</title>
<g id="a_node14"><a xlink:href="/#/computational-storage" xlink:title="&lt;b&gt;Computational&lt;br/&gt;Storage&lt;/b&gt;">
<path fill="#f7f7f7" stroke="black" d="M291.5,-36C291.5,-36 194.5,-36 194.5,-36 188.5,-36 182.5,-30 182.5,-24 182.5,-24 182.5,-12 182.5,-12 182.5,-6 188.5,0 194.5,0 194.5,0 291.5,0 291.5,0 297.5,0 303.5,-6 303.5,-12 303.5,-12 303.5,-24 303.5,-24 303.5,-30 297.5,-36 291.5,-36"/>
<text text-anchor="start" x="190.5" y="-19.7" font-family="sans serif" font-weight="bold" font-size="14.00">Computational</text>
<text text-anchor="start" x="216" y="-5.7" font-family="sans serif" font-weight="bold" font-size="14.00">Storage</text>
</a>
</g>
</g>
<!-- emergent_storage&#45;&gt;csx -->
<g id="edge3" class="edge">
<title>emergent_storage&#45;&gt;csx</title>
<path fill="none" stroke="black" d="M237.96,-143.78C235.82,-117.78 235.69,-75.2 237.56,-47.13"/>
<polygon fill="black" stroke="black" points="241.11,-47.69 238.45,-37.44 234.14,-47.11 241.11,-47.69"/>
</g>
<!-- emergent_storage&#45;&gt;csx -->
<!-- dna -->
<g id="node15" class="node">
<title>dna</title>
<g id="a_node15"><a xlink:href="/#/dna-storage" xlink:title="&lt;b&gt;DNA&#45;based&lt;br/&gt;Storage&lt;/b&gt;">
<path fill="#f7f7f7" stroke="black" d="M419.62,-36C419.62,-36 350.38,-36 350.38,-36 344.38,-36 338.38,-30 338.38,-24 338.38,-24 338.38,-12 338.38,-12 338.38,-6 344.38,0 350.38,0 350.38,0 419.62,0 419.62,0 425.62,0 431.62,-6 431.62,-12 431.62,-12 431.62,-24 431.62,-24 431.62,-30 425.62,-36 419.62,-36"/>
<text text-anchor="start" x="346.38" y="-19.7" font-family="sans serif" font-weight="bold" font-size="14.00">DNA&#45;based</text>
<text text-anchor="start" x="358" y="-5.7" font-family="sans serif" font-weight="bold" font-size="14.00">Storage</text>
</a>
</g>
</g>
<!-- emergent_storage&#45;&gt;dna -->
<g id="edge5" class="edge">
<title>emergent_storage&#45;&gt;dna</title>
<path fill="none" stroke="black" d="M255.7,-143.82C267.74,-123.56 287.2,-93.78 309,-72 319.99,-61.02 333.5,-50.78 346.07,-42.29"/>
<polygon fill="black" stroke="black" points="347.56,-44.84 354,-36.43 343.72,-38.99 347.56,-44.84"/>
</g>
<!-- ml&#45;&gt;emergent_storage -->
<g id="edge35" class="edge">
<title>ml&#45;&gt;emergent_storage</title>
<path fill="none" stroke="black" d="M319.54,-226.87C308.32,-218.31 294.43,-207.72 281.57,-197.92"/>
<polygon fill="black" stroke="black" points="283.96,-194.57 273.89,-191.29 279.71,-200.14 283.96,-194.57"/>
</g>
<!-- ml&#45;&gt;ethics -->
<g id="edge21" class="edge">
<title>ml&#45;&gt;ethics</title>
<path fill="none" stroke="black" d="M381.46,-226.68C406.17,-215.83 438.22,-201.76 464.61,-190.18"/>
<polygon fill="black" stroke="black" points="465.68,-193.1 473.43,-185.87 462.86,-186.69 465.68,-193.1"/>
</g>
<!-- scientific -->
<g id="node8" class="node">
<title>scientific</title>
<path fill="#f7f7f7" stroke="black" d="M239.25,-778C239.25,-778 110.75,-778 110.75,-778 104.75,-778 98.75,-772 98.75,-766 98.75,-766 98.75,-754 98.75,-754 98.75,-748 104.75,-742 110.75,-742 110.75,-742 239.25,-742 239.25,-742 245.25,-742 251.25,-748 251.25,-754 251.25,-754 251.25,-766 251.25,-766 251.25,-772 245.25,-778 239.25,-778"/>
<text text-anchor="middle" x="175" y="-756.45" font-family="sans serif" font-size="14.00">Scientific Computing</text>
</g>
<!-- scientific&#45;&gt;cyberinfrastructure -->
<g id="edge11" class="edge">
<title>scientific&#45;&gt;cyberinfrastructure</title>
<path fill="none" stroke="black" d="M171.75,-741.75C162.45,-692.43 135.69,-550.53 124.27,-489.95"/>
<polygon fill="black" stroke="black" points="127.55,-489.48 122.26,-480.3 120.68,-490.77 127.55,-489.48"/>
</g>
<!-- workflows -->
<g id="node11" class="node">
<title>workflows</title>
<path fill="#f7f7f7" stroke="black" d="M321.25,-706C321.25,-706 186.75,-706 186.75,-706 180.75,-706 174.75,-700 174.75,-694 174.75,-694 174.75,-682 174.75,-682 174.75,-676 180.75,-670 186.75,-670 186.75,-670 321.25,-670 321.25,-670 327.25,-670 333.25,-676 333.25,-682 333.25,-682 333.25,-694 333.25,-694 333.25,-700 327.25,-706 321.25,-706"/>
<text text-anchor="start" x="182.75" y="-685.45" font-family="sans serif" font-weight="bold" font-size="14.00">Scientific Workflows</text>
</g>
<!-- scientific&#45;&gt;workflows -->
<g id="edge10" class="edge">
<title>scientific&#45;&gt;workflows</title>
<path fill="none" stroke="black" d="M194.53,-741.7C204.12,-733.2 215.84,-722.81 226.33,-713.51"/>
<polygon fill="black" stroke="black" points="228.26,-716.6 233.42,-707.35 223.62,-711.36 228.26,-716.6"/>
</g>
<!-- cyberinfrastructure&#45;&gt;performance -->
<g id="edge25" class="edge">
<title>cyberinfrastructure&#45;&gt;performance</title>
<path fill="none" stroke="black" d="M131.63,-442.59C149.56,-417.86 182.54,-372.41 203.31,-343.77"/>
<polygon fill="black" stroke="black" points="206.55,-346.26 209.59,-336.11 200.88,-342.15 206.55,-346.26"/>
</g>
<!-- cyberinfrastructure&#45;&gt;storage -->
<g id="edge29" class="edge">
<title>cyberinfrastructure&#45;&gt;storage</title>
<path fill="none" stroke="black" d="M173.7,-442.52C203.99,-432.83 241.83,-420.74 273.55,-410.6"/>
<polygon fill="black" stroke="black" points="274.16,-413.76 282.62,-407.38 272.03,-407.09 274.16,-413.76"/>
</g>
<!-- datamanagement -->
<g id="node10" class="node">
<title>datamanagement</title>
<path fill="#f7f7f7" stroke="black" d="M314.88,-634C314.88,-634 193.12,-634 193.12,-634 187.12,-634 181.12,-628 181.12,-622 181.12,-622 181.12,-610 181.12,-610 181.12,-604 187.12,-598 193.12,-598 193.12,-598 314.88,-598 314.88,-598 320.88,-598 326.88,-604 326.88,-610 326.88,-610 326.88,-622 326.88,-622 326.88,-628 320.88,-634 314.88,-634"/>
<text text-anchor="start" x="189.12" y="-613.45" font-family="sans serif" font-weight="bold" font-size="14.00">Data Management</text>
</g>
<!-- datamanagement&#45;&gt;hpc -->
<g id="edge17" class="edge">
<title>datamanagement&#45;&gt;hpc</title>
<path fill="none" stroke="black" d="M290.71,-597.68C313.49,-586.93 342.98,-573.01 367.41,-561.48"/>
<polygon fill="black" stroke="black" points="368.64,-564.3 376.19,-556.87 365.65,-557.97 368.64,-564.3"/>
</g>
<!-- datamanagement&#45;&gt;cloud -->
<g id="edge18" class="edge">
<title>datamanagement&#45;&gt;cloud</title>
<path fill="none" stroke="black" d="M249.46,-597.87C247.5,-590.46 245.14,-581.54 242.85,-572.91"/>
<polygon fill="black" stroke="black" points="245.98,-572.06 240.04,-563.29 239.21,-573.85 245.98,-572.06"/>
</g>
<!-- datamanagement&#45;&gt;storage -->
<g id="edge19" class="edge">
<title>datamanagement&#45;&gt;storage</title>
<path fill="none" stroke="black" d="M270.44,-597.61C278.89,-587.82 288.7,-574.98 295,-562 318.06,-514.48 329.52,-453.38 334.58,-418.26"/>
<polygon fill="black" stroke="black" points="338.18,-418.79 336.05,-408.4 331.24,-417.84 338.18,-418.79"/>
</g>
<!-- datamanagement&#45;&gt;cyberinfrastructure -->
<g id="edge20" class="edge">
<title>datamanagement&#45;&gt;cyberinfrastructure</title>
<path fill="none" stroke="black" d="M219.66,-597.66C204.06,-588.58 186.19,-576.35 173,-562 153.35,-540.62 138.45,-510.79 129.33,-489.27"/>
<polygon fill="black" stroke="black" points="132.23,-488.1 125.21,-480.16 125.74,-490.74 132.23,-488.1"/>
</g>
<!-- workflows&#45;&gt;hpc -->
<g id="edge14" class="edge">
<title>workflows&#45;&gt;hpc</title>
<path fill="none" stroke="black" d="M285.58,-669.7C301.52,-660.22 320.68,-647.64 336,-634 359.05,-613.49 381.01,-585.89 395.73,-565.81"/>
<polygon fill="black" stroke="black" points="399.14,-568.06 402.15,-557.9 393.46,-563.97 399.14,-568.06"/>
</g>
<!-- workflows&#45;&gt;performance -->
<g id="edge15" class="edge">
<title>workflows&#45;&gt;performance</title>
<path fill="none" stroke="black" d="M174.33,-674.9C99.84,-658.54 0,-621.34 0,-539.5 0,-539.5 0,-539.5 0,-460 0,-395.02 68.34,-358.43 129.18,-338.73"/>
<polygon fill="black" stroke="black" points="130.14,-341.79 138.65,-335.48 128.06,-335.11 130.14,-341.79"/>
</g>
<!-- workflows&#45;&gt;ml -->
<g id="edge12" class="edge">
<title>workflows&#45;&gt;ml</title>
<path fill="none" stroke="black" d="M333.17,-669.5C389.43,-652.43 460.82,-620.23 495,-562 556.45,-457.33 429.72,-324.29 370.39,-270.36"/>
<polygon fill="black" stroke="black" points="373.28,-268.35 363.49,-264.28 368.61,-273.56 373.28,-268.35"/>
</g>
<!-- workflows&#45;&gt;datamanagement -->
<g id="edge13" class="edge">
<title>workflows&#45;&gt;datamanagement</title>
<path fill="none" stroke="black" d="M254,-669.7C254,-662.24 254,-653.32 254,-644.97"/>
<polygon fill="black" stroke="black" points="257.5,-645.1 254,-635.1 250.5,-645.1 257.5,-645.1"/>
</g>
<!-- postexascale_storage&#45;&gt;csx -->
<g id="edge2" class="edge">
<title>postexascale_storage&#45;&gt;csx</title>
<path fill="none" stroke="black" d="M362.29,-71.52C341.15,-62.21 314.96,-50.68 292.5,-40.79"/>
<polygon fill="black" stroke="black" points="294.04,-37.21 283.48,-36.38 291.22,-43.61 294.04,-37.21"/>
</g>
<!-- postexascale_storage&#45;&gt;dna -->
<g id="edge1" class="edge">
<title>postexascale_storage&#45;&gt;dna</title>
<path fill="none" stroke="black" d="M397.8,-71.7C395.97,-64.15 393.77,-55.12 391.72,-46.68"/>
<polygon fill="black" stroke="black" points="394.92,-46 389.15,-37.1 388.11,-47.65 394.92,-46"/>
</g>
</g>
</svg>
